<svg xmlns="http://www.w3.org/2000/svg" width="288" height="96" viewBox="0 0 96 32" shape-rendering="crispEdges">
  <title>Nyan Cat flying through a star field</title>
  <!-- Fixed palette belongs to the pixel artwork, not UI styling. -->
  <path fill="#9b9bab" d="M88 5h1v1h-1z M86 5h1v1h-1z M90 5h1v1h-1z M88 3h1v1h-1z M88 7h1v1h-1z M16 5h1v1h-1z M14 5h1v1h-1z M18 5h1v1h-1z M16 3h1v1h-1z M16 7h1v1h-1z M40 5h1v1h-1z M38 5h1v1h-1z M42 5h1v1h-1z M40 3h1v1h-1z M40 7h1v1h-1z M64 5h1v1h-1z M62 5h1v1h-1z M66 5h1v1h-1z M64 3h1v1h-1z M64 7h1v1h-1z M3 26h1v1h-1z M1 26h1v1h-1z M5 26h1v1h-1z M3 24h1v1h-1z M3 28h1v1h-1z M27 26h1v1h-1z M25 26h1v1h-1z M29 26h1v1h-1z M27 24h1v1h-1z M27 28h1v1h-1z M51 26h1v1h-1z M49 26h1v1h-1z M53 26h1v1h-1z M51 24h1v1h-1z M51 28h1v1h-1z M75 26h1v1h-1z M73 26h1v1h-1z M77 26h1v1h-1z M75 24h1v1h-1z M75 28h1v1h-1z"/>
  <path fill="#ff667f" d="M0 11h4v2h-4z M4 10h4v2h-4z M8 11h4v2h-4z M12 10h4v2h-4z M16 11h4v2h-4z M20 10h4v2h-4z M24 11h4v2h-4z M28 10h4v2h-4z M32 11h4v2h-4z M36 10h4v2h-4z M40 11h4v2h-4z M44 10h4v2h-4z M48 11h4v2h-4z M52 10h1v2h-1z"/>
  <path fill="#ffb35c" d="M0 13h4v2h-4z M4 12h4v2h-4z M8 13h4v2h-4z M12 12h4v2h-4z M16 13h4v2h-4z M20 12h4v2h-4z M24 13h4v2h-4z M28 12h4v2h-4z M32 13h4v2h-4z M36 12h4v2h-4z M40 13h4v2h-4z M44 12h4v2h-4z M48 13h4v2h-4z M52 12h1v2h-1z"/>
  <path fill="#ffe477" d="M0 15h4v2h-4z M4 14h4v2h-4z M8 15h4v2h-4z M12 14h4v2h-4z M16 15h4v2h-4z M20 14h4v2h-4z M24 15h4v2h-4z M28 14h4v2h-4z M32 15h4v2h-4z M36 14h4v2h-4z M40 15h4v2h-4z M44 14h4v2h-4z M48 15h4v2h-4z M52 14h1v2h-1z"/>
  <path fill="#8bdd8d" d="M0 17h4v2h-4z M4 16h4v2h-4z M8 17h4v2h-4z M12 16h4v2h-4z M16 17h4v2h-4z M20 16h4v2h-4z M24 17h4v2h-4z M28 16h4v2h-4z M32 17h4v2h-4z M36 16h4v2h-4z M40 17h4v2h-4z M44 16h4v2h-4z M48 17h4v2h-4z M52 16h1v2h-1z"/>
  <path fill="#7eb6ff" d="M0 19h4v2h-4z M4 18h4v2h-4z M8 19h4v2h-4z M12 18h4v2h-4z M16 19h4v2h-4z M20 18h4v2h-4z M24 19h4v2h-4z M28 18h4v2h-4z M32 19h4v2h-4z M36 18h4v2h-4z M40 19h4v2h-4z M44 18h4v2h-4z M48 19h4v2h-4z M52 18h1v2h-1z"/>
  <path fill="#b99bff" d="M0 21h4v2h-4z M4 20h4v2h-4z M8 21h4v2h-4z M12 20h4v2h-4z M16 21h4v2h-4z M20 20h4v2h-4z M24 21h4v2h-4z M28 20h4v2h-4z M32 21h4v2h-4z M36 20h4v2h-4z M40 21h4v2h-4z M44 20h4v2h-4z M48 21h4v2h-4z M52 20h1v2h-1z"/>
  <path fill="#292934" d="M47 15h8v3h-8z M45 13h3v3h-3z M57 24h4v3h-4z M60 24h4v3h-4z M70 24h4v3h-4z M73 24h4v3h-4z M53 8h22v17h-22z M52 9h24v15h-24z"/>
  <path fill="#a4a4b2" d="M46 14h2v2h-2z M48 16h6v1h-6z M58 24h2v2h-2z M61 24h2v2h-2z M71 24h2v2h-2z M74 24h2v2h-2z"/>
  <path fill="#f5d49a" d="M54 9h20v15h-20z M53 10h22v13h-22z"/>
  <path fill="#ffa3d5" d="M55 10h18v13h-18z M54 11h20v11h-20z"/>
  <path fill="#e963a8" d="M57 12h1v1h-1z M63 11h1v1h-1z M69 13h1v1h-1z M59 16h1v1h-1z M66 15h1v1h-1z M56 20h1v1h-1z M62 21h1v1h-1z M69 19h1v1h-1z"/>
  <path fill="#292934" d="M71 14h1v1h-1z M72 14h1v1h-1z M78 14h1v1h-1z M79 14h1v1h-1z M70 15h1v1h-1z M73 15h1v1h-1z M77 15h1v1h-1z M80 15h1v1h-1z M70 16h1v1h-1z M74 16h1v1h-1z M75 16h1v1h-1z M76 16h1v1h-1z M80 16h1v1h-1z M70 17h1v1h-1z M80 17h1v1h-1z M70 18h1v1h-1z M73 18h1v1h-1z M78 18h1v1h-1z M80 18h1v1h-1z M70 19h1v1h-1z M72 19h1v1h-1z M73 19h1v1h-1z M77 19h1v1h-1z M78 19h1v1h-1z M80 19h1v1h-1z M70 20h1v1h-1z M75 20h1v1h-1z M80 20h1v1h-1z M70 21h1v1h-1z M73 21h1v1h-1z M77 21h1v1h-1z M80 21h1v1h-1z M71 22h1v1h-1z M74 22h1v1h-1z M75 22h1v1h-1z M76 22h1v1h-1z M79 22h1v1h-1z M72 23h1v1h-1z M73 23h1v1h-1z M74 23h1v1h-1z M75 23h1v1h-1z M76 23h1v1h-1z M77 23h1v1h-1z M78 23h1v1h-1z"/>
  <path fill="#a4a4b2" d="M71 15h1v1h-1z M72 15h1v1h-1z M78 15h1v1h-1z M79 15h1v1h-1z M71 16h1v1h-1z M72 16h1v1h-1z M73 16h1v1h-1z M77 16h1v1h-1z M78 16h1v1h-1z M79 16h1v1h-1z M71 17h1v1h-1z M72 17h1v1h-1z M73 17h1v1h-1z M74 17h1v1h-1z M75 17h1v1h-1z M76 17h1v1h-1z M77 17h1v1h-1z M78 17h1v1h-1z M79 17h1v1h-1z M71 18h1v1h-1z M74 18h1v1h-1z M75 18h1v1h-1z M76 18h1v1h-1z M79 18h1v1h-1z M71 19h1v1h-1z M74 19h1v1h-1z M75 19h1v1h-1z M76 19h1v1h-1z M79 19h1v1h-1z M72 20h1v1h-1z M73 20h1v1h-1z M74 20h1v1h-1z M76 20h1v1h-1z M77 20h1v1h-1z M78 20h1v1h-1z M71 21h1v1h-1z M72 21h1v1h-1z M74 21h1v1h-1z M75 21h1v1h-1z M76 21h1v1h-1z M78 21h1v1h-1z M79 21h1v1h-1z M72 22h1v1h-1z M73 22h1v1h-1z M77 22h1v1h-1z M78 22h1v1h-1z"/>
  <path fill="#ffffff" d="M72 18h1v1h-1z M77 18h1v1h-1z"/>
  <path fill="#ffa3d5" d="M71 20h1v1h-1z M79 20h1v1h-1z"/>
</svg>
