<svg xmlns="http://www.w3.org/2000/svg" width="288" height="96" viewBox="0 0 96 32" shape-rendering="crispEdges">
  <title>Nyan Cat flying through a star field</title>
  <!-- Fixed palette belongs to the pixel artwork, not UI styling. -->
  <path fill="#9b9bab" d="M76 5h1v1h-1z M74 5h1v1h-1z M78 5h1v1h-1z M76 3h1v1h-1z M76 7h1v1h-1z M4 5h1v1h-1z M2 5h1v1h-1z M6 5h1v1h-1z M4 3h1v1h-1z M4 7h1v1h-1z M28 5h1v1h-1z M26 5h1v1h-1z M30 5h1v1h-1z M28 3h1v1h-1z M28 7h1v1h-1z M52 5h1v1h-1z M50 5h1v1h-1z M54 5h1v1h-1z M52 3h1v1h-1z M52 7h1v1h-1z M87 26h1v1h-1z M85 26h1v1h-1z M89 26h1v1h-1z M87 24h1v1h-1z M87 28h1v1h-1z M15 26h1v1h-1z M13 26h1v1h-1z M17 26h1v1h-1z M15 24h1v1h-1z M15 28h1v1h-1z M39 26h1v1h-1z M37 26h1v1h-1z M41 26h1v1h-1z M39 24h1v1h-1z M39 28h1v1h-1z M63 26h1v1h-1z M61 26h1v1h-1z M65 26h1v1h-1z M63 24h1v1h-1z M63 28h1v1h-1z"/>
  <path fill="#ff667f" d="M0 10h4v2h-4z M4 11h4v2h-4z M8 10h4v2h-4z M12 11h4v2h-4z M16 10h4v2h-4z M20 11h4v2h-4z M24 10h4v2h-4z M28 11h4v2h-4z M32 10h4v2h-4z M36 11h4v2h-4z M40 10h4v2h-4z M44 11h4v2h-4z M48 10h4v2h-4z M52 11h1v2h-1z"/>
  <path fill="#ffb35c" d="M0 12h4v2h-4z M4 13h4v2h-4z M8 12h4v2h-4z M12 13h4v2h-4z M16 12h4v2h-4z M20 13h4v2h-4z M24 12h4v2h-4z M28 13h4v2h-4z M32 12h4v2h-4z M36 13h4v2h-4z M40 12h4v2h-4z M44 13h4v2h-4z M48 12h4v2h-4z M52 13h1v2h-1z"/>
  <path fill="#ffe477" d="M0 14h4v2h-4z M4 15h4v2h-4z M8 14h4v2h-4z M12 15h4v2h-4z M16 14h4v2h-4z M20 15h4v2h-4z M24 14h4v2h-4z M28 15h4v2h-4z M32 14h4v2h-4z M36 15h4v2h-4z M40 14h4v2h-4z M44 15h4v2h-4z M48 14h4v2h-4z M52 15h1v2h-1z"/>
  <path fill="#8bdd8d" d="M0 16h4v2h-4z M4 17h4v2h-4z M8 16h4v2h-4z M12 17h4v2h-4z M16 16h4v2h-4z M20 17h4v2h-4z M24 16h4v2h-4z M28 17h4v2h-4z M32 16h4v2h-4z M36 17h4v2h-4z M40 16h4v2h-4z M44 17h4v2h-4z M48 16h4v2h-4z M52 17h1v2h-1z"/>
  <path fill="#7eb6ff" d="M0 18h4v2h-4z M4 19h4v2h-4z M8 18h4v2h-4z M12 19h4v2h-4z M16 18h4v2h-4z M20 19h4v2h-4z M24 18h4v2h-4z M28 19h4v2h-4z M32 18h4v2h-4z M36 19h4v2h-4z M40 18h4v2h-4z M44 19h4v2h-4z M48 18h4v2h-4z M52 19h1v2h-1z"/>
  <path fill="#b99bff" d="M0 20h4v2h-4z M4 21h4v2h-4z M8 20h4v2h-4z M12 21h4v2h-4z M16 20h4v2h-4z M20 21h4v2h-4z M24 20h4v2h-4z M28 21h4v2h-4z M32 20h4v2h-4z M36 21h4v2h-4z M40 20h4v2h-4z M44 21h4v2h-4z M48 20h4v2h-4z M52 21h1v2h-1z"/>
  <path fill="#292934" d="M47 15h8v3h-8z M45 13h3v3h-3z M55 23h4v3h-4z M62 23h4v3h-4z M68 23h4v3h-4z M75 23h4v3h-4z M53 7h22v17h-22z M52 8h24v15h-24z"/>
  <path fill="#a4a4b2" d="M46 14h2v2h-2z M48 16h6v1h-6z M56 23h2v2h-2z M63 23h2v2h-2z M69 23h2v2h-2z M76 23h2v2h-2z"/>
  <path fill="#f5d49a" d="M54 8h20v15h-20z M53 9h22v13h-22z"/>
  <path fill="#ffa3d5" d="M55 9h18v13h-18z M54 10h20v11h-20z"/>
  <path fill="#e963a8" d="M57 11h1v1h-1z M63 10h1v1h-1z M69 12h1v1h-1z M59 15h1v1h-1z M66 14h1v1h-1z M56 19h1v1h-1z M62 20h1v1h-1z M69 18h1v1h-1z"/>
  <path fill="#292934" d="M71 13h1v1h-1z M72 13h1v1h-1z M78 13h1v1h-1z M79 13h1v1h-1z M70 14h1v1h-1z M73 14h1v1h-1z M77 14h1v1h-1z M80 14h1v1h-1z M70 15h1v1h-1z M74 15h1v1h-1z M75 15h1v1h-1z M76 15h1v1h-1z M80 15h1v1h-1z M70 16h1v1h-1z M80 16h1v1h-1z M70 17h1v1h-1z M73 17h1v1h-1z M78 17h1v1h-1z M80 17h1v1h-1z M70 18h1v1h-1z M72 18h1v1h-1z M73 18h1v1h-1z M77 18h1v1h-1z M78 18h1v1h-1z M80 18h1v1h-1z M70 19h1v1h-1z M75 19h1v1h-1z M80 19h1v1h-1z M70 20h1v1h-1z M73 20h1v1h-1z M77 20h1v1h-1z M80 20h1v1h-1z M71 21h1v1h-1z M74 21h1v1h-1z M75 21h1v1h-1z M76 21h1v1h-1z M79 21h1v1h-1z M72 22h1v1h-1z M73 22h1v1h-1z M74 22h1v1h-1z M75 22h1v1h-1z M76 22h1v1h-1z M77 22h1v1h-1z M78 22h1v1h-1z"/>
  <path fill="#a4a4b2" d="M71 14h1v1h-1z M72 14h1v1h-1z M78 14h1v1h-1z M79 14h1v1h-1z M71 15h1v1h-1z M72 15h1v1h-1z M73 15h1v1h-1z M77 15h1v1h-1z M78 15h1v1h-1z M79 15h1v1h-1z M71 16h1v1h-1z M72 16h1v1h-1z M73 16h1v1h-1z M74 16h1v1h-1z M75 16h1v1h-1z M76 16h1v1h-1z M77 16h1v1h-1z M78 16h1v1h-1z M79 16h1v1h-1z M71 17h1v1h-1z M74 17h1v1h-1z M75 17h1v1h-1z M76 17h1v1h-1z M79 17h1v1h-1z M71 18h1v1h-1z M74 18h1v1h-1z M75 18h1v1h-1z M76 18h1v1h-1z M79 18h1v1h-1z M72 19h1v1h-1z M73 19h1v1h-1z M74 19h1v1h-1z M76 19h1v1h-1z M77 19h1v1h-1z M78 19h1v1h-1z M71 20h1v1h-1z M72 20h1v1h-1z M74 20h1v1h-1z M75 20h1v1h-1z M76 20h1v1h-1z M78 20h1v1h-1z M79 20h1v1h-1z M72 21h1v1h-1z M73 21h1v1h-1z M77 21h1v1h-1z M78 21h1v1h-1z"/>
  <path fill="#ffffff" d="M72 17h1v1h-1z M77 17h1v1h-1z"/>
  <path fill="#ffa3d5" d="M71 19h1v1h-1z M79 19h1v1h-1z"/>
</svg>
